<svg xmlns="http://www.w3.org/2000/svg" xmlns:xlink="http://www.w3.org/1999/xlink"><symbol id="beer" viewBox="0 0 512 512" style="width:256px;height:256px"><path class="ast0" d="M108.36 428.924c0 11.214 9.114 20.353 20.336 20.353h139.598c11.214 0 20.344-9.139 20.344-20.353V270.59H108.36v158.334z"/><path class="ast0" d="M462.887 215.16c-16.103-16.21-38.589-26.046-63.06-25.948-9.155-.057-18.54 1.444-27.9 4.209 8.072-12.56 12.83-27.44 12.83-43.536 0-30.542-16.842-57.104-41.731-70.919C330.467 33.371 288.744 0 239.262 0c-18.721 0-36.293 4.815-51.558 13.174-11.715-7.309-25.628-11.501-40.484-11.501-37.022.107-67.981 25.94-75.627 60.664-28.343 11.091-48.425 38.802-48.425 71.124 0 21.238 8.581 40.377 22.388 54.192v241.295c0 45.923 37.235 83.051 83.158 83.051h139.63c45.816 0 83.043-37.128 83.043-83.051v-35.874c3.987.418 7.958.623 12.034.623 26.366 0 53.659-7.851 76.776-23.946 11.509-7.958 21.968-18.097 30.122-30.336 8.261-12.24 14.225-26.67 17.047-42.674.944-5.858 1.468-11.616 1.468-17.367 0-25.093-9.721-47.906-25.947-64.214zM320.008 428.949c0 28.458-23.216 51.673-51.665 51.673h-139.63c-28.556 0-51.78-23.215-51.78-51.673V209.507h243.076v219.442zm24.487-250.82H91.994c-9.409-1.568-17.67-6.062-24.159-12.552-8.261-8.261-13.29-19.458-13.29-32.116 0-21.338 14.857-39.221 34.734-44.036l10.976-2.609.943-11.304c1.887-23.732 21.756-42.46 46.021-42.46 11.402 0 21.658 4.076 29.705 10.877l9.204 7.744 9.836-6.801c12.338-8.581 27.088-13.495 43.298-13.495 37.03 0 67.891 26.464 74.79 61.403l1.673 8.163 7.531 3.232c17.785 7.645 30.123 25.208 30.123 45.709 0 10.567-3.24 20.189-8.884 28.245zm101.558 111.607c-1.674 10.139-5.34 18.72-10.459 26.349-7.539 11.296-18.622 20.295-31.484 26.464-12.864 6.169-27.399 9.418-40.69 9.311-4.183 0-8.162-.205-12.034-.828v-98.54c4.503-4.078 8.901-7.424 13.191-10.246 12.855-8.163 24.676-11.198 35.25-11.198 13.495 0 24.996 5.126 33.355 13.601 8.483 8.474 13.815 20.295 13.815 34.725 0 3.356-.32 6.802-.944 10.362z"/></symbol><symbol id="cat" viewBox="0 0 512 512" style="width:256px;height:256px"><path class="bst0" d="M430.762 126.907c-42.384-89.329-67.753-89.329-78.722-89.329-1.947 0-3.884.167-5.785.482-18.1 3.014-41.374 22.031-69.302 56.579h-41.929c-27.909-34.548-51.202-53.566-69.301-56.579a35.159 35.159 0 0 0-5.758-.482h-.25c-11.108 0-36.412.649-78.499 89.329C34.188 164.608-32.49 256.506 18.091 366.094c49.996 108.328 191.425 108.328 237.907 108.328 46.472 0 187.911 0 237.907-108.318 50.59-109.598-16.096-201.496-63.143-239.197zm37.293 227.254c-41.15 89.134-161.411 91.776-212.056 91.776-50.626 0-170.906-2.642-212.038-91.776-56.969-123.432 60.121-208.886 60.121-208.886s36.551-79.213 55.875-79.213l1.094.093c18.99 3.162 60.14 56.969 60.14 56.969h69.616s41.15-53.807 60.14-56.969l1.094-.093c19.305 0 55.875 79.213 55.875 79.213s117.108 85.454 60.139 208.886z"/><path class="bst0" d="M78.008 314.355l103.738 8.169.742-9.467-103.738-8.16zM76.2 355.496l1.01 9.439 101.235-10.802-1.011-9.44zM330.269 322.524l103.719-8.169-.741-9.458-103.72 8.16zM333.56 354.133l101.236 10.802 1.01-9.439-101.235-10.803zM317.222 368.467c-7.983 1.91-14.715 2.708-20.324 2.708-7.446 0-12.832-1.391-16.866-3.422-5.981-3.059-9.458-7.621-11.841-13.5-2.327-5.832-3.171-12.851-3.162-19.157 0-3.95.333-7.427.695-10.329l16.718-16.718a10.762 10.762 0 0 0 2.336-11.73 10.756 10.756 0 0 0-9.94-6.648h-37.683c-4.45 0-8.437 2.745-10.032 6.899a10.737 10.737 0 0 0 2.819 11.85l16.096 14.576c.464 3.115.927 7.325.918 12.118.045 8.438-1.531 18.016-5.954 24.581-2.216 3.32-5.016 6.018-9.04 8.057-4.025 2.031-9.42 3.422-16.857 3.422-5.601 0-12.341-.798-20.326-2.716-4.339-1.039-8.697 1.641-9.736 5.971-1.029 4.339 1.651 8.697 5.981 9.736 8.976 2.142 16.941 3.143 24.081 3.152 9.448 0 17.496-1.808 24.126-5.146 7.779-3.895 13.222-9.866 16.857-16.347.52.918.853 1.864 1.428 2.763a39.533 39.533 0 0 0 15.243 13.584c6.639 3.338 14.688 5.156 24.136 5.146 7.14 0 15.104-1.01 24.08-3.162a8.066 8.066 0 1 0-3.753-15.688zM152.742 105.711L138.5 141.316l35.606-7.121zM359.254 105.711l-21.363 28.484 35.605 7.121zM146.011 241.809c0 13.983 11.349 25.323 25.332 25.323 13.982 0 25.313-11.34 25.313-25.323s-11.331-25.322-25.313-25.322c-13.983 0-25.332 11.339-25.332 25.322zM340.663 267.132c13.982 0 25.323-11.34 25.323-25.323s-11.341-25.322-25.323-25.322c-13.983 0-25.322 11.34-25.322 25.322 0 13.983 11.339 25.323 25.322 25.323z"/></symbol></svg>